<svg width="66" height="69" viewBox="0 0 66 69" fill="none" xmlns="http://www.w3.org/2000/svg">
<path d="M36.1068 13.1832C36.1068 8.64479 41.6261 6.40799 44.7858 9.66594L62.7443 28.1834C64.6617 30.1605 65.734 32.8064 65.734 35.5605V56.2191C65.734 60.7576 60.2147 62.9944 57.0551 59.7364L39.0965 41.219C37.1791 39.2419 36.1068 36.596 36.1068 33.8419V13.1832Z" fill="#0C7FDA"/>
<path d="M17.7459 12.4664C17.7459 7.92792 23.2652 5.69112 26.4248 8.94907L43.9538 27.0235C46.1467 29.2847 47.3731 32.3109 47.3731 35.4608V55.5023C47.3731 60.0407 41.8538 62.2775 38.6941 59.0196L20.7356 40.5021C18.8182 38.525 17.7459 35.8791 17.7459 33.125V12.4664Z" fill="#2196F3"/>
<path d="M0 13.1832C0 8.64479 5.51933 6.40799 8.67895 9.66594L26.6375 28.1834C28.5549 30.1605 29.6272 32.8064 29.6272 35.5605V56.2191C29.6272 60.7576 24.1079 62.9944 20.9483 59.7364L2.98969 41.219C1.0723 39.2419 0 36.596 0 33.8419V13.1832Z" fill="#6EBBF7"/>
</svg>
